SRRun01_grf
version=1
nRows=34
nColumns=19
inDegrees=no
endheader
time	ground_force_r_vx	ground_force_r_vy	ground_force_r_vz	ground_force_r_px	ground_force_r_py	ground_force_r_pz	ground_force_r_mx	ground_force_r_my	ground_force_r_mz	ground_force_l_vx	ground_force_l_vy	ground_force_l_vz	ground_force_l_px	ground_force_l_py	ground_force_l_pz	ground_force_l_mx	ground_force_l_my	ground_force_l_mz
    144.99800000	     30.81825007	   1534.39580329	    -60.95618692	      0.94291594	      0.00000000	     -0.29026810	      0.00002006	     -6.97983949	      0.00006756	      0.00000000	      0.00000000	      0.00000000	      0.00000000	      0.00000000	      0.00000000	      0.00000000	      0.00000000	      0.00000000
    144.99900000	     34.11784298	   1525.31080088	    -59.05697215	      0.94098616	      0.00000000	     -0.29009762	      0.00001880	     -8.39618809	      0.00006632	      0.00000000	      0.00000000	      0.00000000	      0.00000000	      0.00000000	      0.00000000	      0.00000000	      0.00000000	      0.00000000
    145.00000000	     37.18177851	   1515.87166266	    -58.44232729	      0.93909508	      0.00000000	     -0.28996730	      0.00001769	     -9.45472036	      0.00006498	      0.00000000	      0.00000000	      0.00000000	      0.00000000	      0.00000000	      0.00000000	      0.00000000	      0.00000000	      0.00000000
    145.00100000	     40.00128486	   1506.06346767	    -59.13335750	      0.93724934	      0.00000000	     -0.28987318	      0.00001678	    -10.06297808	      0.00006355	      0.00000000	      0.00000000	      0.00000000	      0.00000000	      0.00000000	      0.00000000	      0.00000000	      0.00000000	      0.00000000
    145.00200000	     42.60530186	   1495.87511646	    -61.04165758	      0.93545634	      0.00000000	     -0.28980774	      0.00001609	    -10.17206014	      0.00006209	      0.00000000	      0.00000000	      0.00000000	      0.00000000	      0.00000000	      0.00000000	      0.00000000	      0.00000000	      0.00000000
    145.00300000	     45.05360829	   1485.29913402	    -63.97836524	      0.93372280	      0.00000000	     -0.28976083	      0.00001563	     -9.78015863	      0.00006063	      0.00000000	      0.00000000	      0.00000000	      0.00000000	      0.00000000	      0.00000000	      0.00000000	      0.00000000	      0.00000000
    145.00400000	     47.42594822	   1474.33198721	    -67.67164436	      0.93205311	      0.00000000	     -0.28972086	      0.00001539	     -8.93201239	      0.00005923	      0.00000000	      0.00000000	      0.00000000	      0.00000000	      0.00000000	      0.00000000	      0.00000000	      0.00000000	      0.00000000
    145.00500000	     49.80894908	   1462.97560046	    -71.79082147	      0.93044792	      0.00000000	     -0.28967614	      0.00001538	     -7.71419573	      0.00005793	      0.00000000	      0.00000000	      0.00000000	      0.00000000	      0.00000000	      0.00000000	      0.00000000	      0.00000000	      0.00000000
    145.00600000	     52.28274091	   1451.23998471	    -75.97492684	      0.92890310	      0.00000000	     -0.28961611	      0.00001557	     -6.24659193	      0.00005679	      0.00000000	      0.00000000	      0.00000000	      0.00000000	      0.00000000	      0.00000000	      0.00000000	      0.00000000	      0.00000000
    145.00700000	     54.90902885	   1439.14609794	    -79.86318757	      0.92740920	      0.00000000	     -0.28953243	      0.00001593	     -4.67079355	      0.00005586	      0.00000000	      0.00000000	      0.00000000	      0.00000000	      0.00000000	      0.00000000	      0.00000000	      0.00000000	      0.00000000
    145.00800000	     57.72202907	   1426.72779506	    -83.12494226	      0.92595165	      0.00000000	     -0.28941980	      0.00001644	     -3.13645318	      0.00005518	      0.00000000	      0.00000000	      0.00000000	      0.00000000	      0.00000000	      0.00000000	      0.00000000	      0.00000000	      0.00000000
    145.00900000	     60.72323545	   1414.03214150	    -85.48639304	      0.92451169	      0.00000000	     -0.28927654	      0.00001706	     -1.78681398	      0.00005478	      0.00000000	      0.00000000	      0.00000000	      0.00000000	      0.00000000	      0.00000000	      0.00000000	      0.00000000	      0.00000000
    145.01000000	     63.88049179	   1401.11812713	    -86.75175354	      0.92306826	      0.00000000	     -0.28910478	      0.00001775	     -0.74477661	      0.00005470	      0.00000000	      0.00000000	      0.00000000	      0.00000000	      0.00000000	      0.00000000	      0.00000000	      0.00000000	      0.00000000
    145.01100000	     67.13133182	   1388.05439230	    -86.81690808	      0.92160066	      0.00000000	     -0.28891039	      0.00001848	     -0.10085172	      0.00005495	      0.00000000	      0.00000000	      0.00000000	      0.00000000	      0.00000000	      0.00000000	      0.00000000	      0.00000000	      0.00000000
    145.01200000	     70.39003077	   1374.91657350	    -85.67458785	      0.92009136	      0.00000000	     -0.28870254	      0.00001920	      0.09579763	      0.00005553	      0.00000000	      0.00000000	      0.00000000	      0.00000000	      0.00000000	      0.00000000	      0.00000000	      0.00000000	      0.00000000
    145.01300000	     73.55737978	   1361.78438147	    -83.41097147	      0.91852842	      0.00000000	     -0.28849293	      0.00001988	     -0.15774818	      0.00005639	      0.00000000	      0.00000000	      0.00000000	      0.00000000	      0.00000000	      0.00000000	      0.00000000	      0.00000000	      0.00000000
    145.01400000	     76.53199109	   1348.73804869	    -80.19434791	      0.91690663	      0.00000000	     -0.28829464	      0.00002048	     -0.81795451	      0.00005750	      0.00000000	      0.00000000	      0.00000000	      0.00000000	      0.00000000	      0.00000000	      0.00000000	      0.00000000	      0.00000000
    145.01500000	     79.22199304	   1335.85378671	    -76.25711112	      0.91522732	      0.00000000	     -0.28812075	      0.00002096	     -1.79940505	      0.00005876	      0.00000000	      0.00000000	      0.00000000	      0.00000000	      0.00000000	      0.00000000	      0.00000000	      0.00000000	      0.00000000
    145.01600000	     81.55615146	   1323.19839456	    -71.87296056	      0.91349699	      0.00000000	     -0.28798287	      0.00002130	     -2.98361932	      0.00006008	      0.00000000	      0.00000000	      0.00000000	      0.00000000	      0.00000000	      0.00000000	      0.00000000	      0.00000000	      0.00000000
    145.01700000	     83.49357794	   1310.82378346	    -67.33165176	      0.91172527	      0.00000000	     -0.28788968	      0.00002150	     -4.23103426	      0.00006133	      0.00000000	      0.00000000	      0.00000000	      0.00000000	      0.00000000	      0.00000000	      0.00000000	      0.00000000	      0.00000000
    145.01800000	     85.03118639	   1298.76246069	    -62.91374941	      0.90992293	      0.00000000	     -0.28784600	      0.00002153	     -5.39482983	      0.00006240	      0.00000000	      0.00000000	      0.00000000	      0.00000000	      0.00000000	      0.00000000	      0.00000000	      0.00000000	      0.00000000
    145.01900000	     86.20802929	   1287.02475182	    -58.86754752	      0.90810033	      0.00000000	     -0.28785234	      0.00002140	     -6.33532702	      0.00006318	      0.00000000	      0.00000000	      0.00000000	      0.00000000	      0.00000000	      0.00000000	      0.00000000	      0.00000000	      0.00000000
    145.02000000	     87.10573908	   1275.59795042	    -55.38989087	      0.90626634	      0.00000000	     -0.28790504	      0.00002113	     -6.93377758	      0.00006358	      0.00000000	      0.00000000	      0.00000000	      0.00000000	      0.00000000	      0.00000000	      0.00000000	      0.00000000	      0.00000000
    145.02100000	     87.84458793	   1264.44709422	    -52.61221743	      0.90442769	      0.00000000	     -0.28799686	      0.00002073	     -7.10438049	      0.00006354	      0.00000000	      0.00000000	      0.00000000	      0.00000000	      0.00000000	      0.00000000	      0.00000000	      0.00000000	      0.00000000
    145.02200000	     88.57509409	   1253.51699118	    -50.59270291	      0.90258859	      0.00000000	     -0.28811783	      0.00002022	     -6.80339311	      0.00006306	      0.00000000	      0.00000000	      0.00000000	      0.00000000	      0.00000000	      0.00000000	      0.00000000	      0.00000000	      0.00000000
    145.02300000	     89.46558806	   1242.73545597	    -49.31488398	      0.90075081	      0.00000000	     -0.28825620	      0.00001964	     -6.03437571	      0.00006216	      0.00000000	      0.00000000	      0.00000000	      0.00000000	      0.00000000	      0.00000000	      0.00000000	      0.00000000	      0.00000000
    145.02400000	     90.68668872	   1232.01805484	    -48.69261458	      0.89891406	      0.00000000	     -0.28839953	      0.00001901	     -4.84893870	      0.00006091	      0.00000000	      0.00000000	      0.00000000	      0.00000000	      0.00000000	      0.00000000	      0.00000000	      0.00000000	      0.00000000
    145.02500000	     92.39412322	   1221.27445928	    -48.58072001	      0.89707688	      0.00000000	     -0.28853572	      0.00001838	     -3.34279387	      0.00005940	      0.00000000	      0.00000000	      0.00000000	      0.00000000	      0.00000000	      0.00000000	      0.00000000	      0.00000000	      0.00000000
    145.02600000	     94.71161716	   1210.41579191	    -48.79025665	      0.89523762	      0.00000000	     -0.28865418	      0.00001778	     -1.64740355	      0.00005774	      0.00000000	      0.00000000	      0.00000000	      0.00000000	      0.00000000	      0.00000000	      0.00000000	      0.00000000	      0.00000000
    145.02700000	     97.71567675	   1199.36175203	    -49.10688625	      0.89339540	      0.00000000	     -0.28874701	      0.00001725	      0.08198022	      0.00005603	      0.00000000	      0.00000000	      0.00000000	      0.00000000	      0.00000000	      0.00000000	      0.00000000	      0.00000000	      0.00000000
    145.02800000	    101.42405706	   1188.04622357	    -49.31061520	      0.89155055	      0.00000000	     -0.28880988	      0.00001680	      1.68071547	      0.00005438	      0.00000000	      0.00000000	      0.00000000	      0.00000000	      0.00000000	      0.00000000	      0.00000000	      0.00000000	      0.00000000
    145.02900000	    105.78954834	   1176.42047767	    -49.19509636	      0.88970423	      0.00000000	     -0.28884264	      0.00001646	      2.99028117	      0.00005283	      0.00000000	      0.00000000	      0.00000000	      0.00000000	      0.00000000	      0.00000000	      0.00000000	      0.00000000	      0.00000000
    145.03000000	    110.70028204	   1164.45383595	    -48.58482958	      0.88785758	      0.00000000	     -0.28884931	      0.00001622	      3.87355649	      0.00005146	      0.00000000	      0.00000000	      0.00000000	      0.00000000	      0.00000000	      0.00000000	      0.00000000	      0.00000000	      0.00000000
    145.03100000	    115.98699036	   1152.13244063	    -47.34887846	      0.88601044	      0.00000000	     -0.28883761	      0.00001606	      4.22851488	      0.00005028	      0.00000000	      0.00000000	      0.00000000	      0.00000000	      0.00000000	      0.00000000	      0.00000000	      0.00000000	      0.00000000
